<svg width="25" height="28" viewBox="0 0 25 28" fill="none" xmlns="http://www.w3.org/2000/svg">
<path d="M14.9268 21.7778C14.9268 21.7778 14.384 21.7778 13.2983 21.7778C12.2127 21.7778 10.9164 21.0244 9.40942 19.5174C7.90248 18.0105 7.14901 16.1714 7.14901 14.0001C7.14901 11.8288 7.90248 9.98964 9.40942 8.48269C10.9164 6.97575 12.7555 6.22228 14.9268 6.22228C17.0981 6.22228 18.9372 6.97575 20.4441 8.48269C21.9511 9.98964 22.7046 11.8288 22.7046 14.0001C22.7046 16.1714 21.9511 18.0105 20.4441 19.5174C18.9372 21.0244 17.0981 21.7778 14.9268 21.7778ZM7.14901 21.5348C5.43141 21.0811 4.02979 20.1575 2.94415 18.7639C1.8585 17.3704 1.31567 15.7825 1.31567 14.0001C1.31567 12.2176 1.8585 10.6297 2.94415 9.23617C4.02979 7.84265 5.43141 6.91904 7.14901 6.46533V8.507C5.98234 8.91209 5.04253 9.61695 4.32956 10.6216C3.6166 11.6262 3.26012 12.7524 3.26012 14.0001C3.26012 15.2477 3.6166 16.3739 4.32956 17.3785C5.04253 18.3832 5.98234 19.088 7.14901 19.4931V21.5348ZM14.9268 19.8334C14.9268 19.8334 15.3319 19.8334 16.1421 19.8334C16.9522 19.8334 17.9245 19.2663 19.0587 18.132C20.193 16.9977 20.7601 15.6204 20.7601 14.0001C20.7601 12.3797 20.193 11.0024 19.0587 9.86811C17.9245 8.73385 16.5472 8.16672 14.9268 8.16672C13.3064 8.16672 11.9291 8.73385 10.7948 9.86811C9.66058 11.0024 9.09345 12.3797 9.09345 14.0001C9.09345 15.6204 9.66058 16.9977 10.7948 18.132C11.9291 19.2663 13.3064 19.8334 14.9268 19.8334Z" fill="#6B7280"/>
</svg>
